<mxfile host="app.diagrams.net" modified="2024-04-29T20:27:38.673Z" agent="Mozilla/5.0 (Windows NT 10.0; Win64; x64) AppleWebKit/537.36 (KHTML, like Gecko) Chrome/124.0.0.0 Safari/537.36" etag="0XNvr0_3vuawjMmxOOKI" version="24.2.8" type="device">
  <diagram id="C5RBs43oDa-KdzZeNtuy" name="Page-1">
    <mxGraphModel dx="2022" dy="1784" grid="1" gridSize="10" guides="1" tooltips="1" connect="1" arrows="1" fold="1" page="1" pageScale="1" pageWidth="827" pageHeight="1169" math="0" shadow="0">
      <root>
        <mxCell id="WIyWlLk6GJQsqaUBKTNV-0" />
        <mxCell id="WIyWlLk6GJQsqaUBKTNV-1" parent="WIyWlLk6GJQsqaUBKTNV-0" />
        <mxCell id="WIyWlLk6GJQsqaUBKTNV-3" value="Product Owner started das Meeting" style="rounded=1;whiteSpace=wrap;html=1;fontSize=12;glass=0;strokeWidth=1;shadow=0;" parent="WIyWlLk6GJQsqaUBKTNV-1" vertex="1">
          <mxGeometry x="160" y="80" width="120" height="40" as="geometry" />
        </mxCell>
        <mxCell id="YppJkVPkeZr5bcaH0tK0-0" value="" style="strokeWidth=2;html=1;shape=mxgraph.flowchart.start_2;whiteSpace=wrap;" vertex="1" parent="WIyWlLk6GJQsqaUBKTNV-1">
          <mxGeometry x="200" width="40" height="40" as="geometry" />
        </mxCell>
        <mxCell id="YppJkVPkeZr5bcaH0tK0-1" value="" style="endArrow=classic;html=1;rounded=0;exitX=0.5;exitY=1;exitDx=0;exitDy=0;exitPerimeter=0;entryX=0.5;entryY=0;entryDx=0;entryDy=0;" edge="1" parent="WIyWlLk6GJQsqaUBKTNV-1" source="YppJkVPkeZr5bcaH0tK0-0" target="WIyWlLk6GJQsqaUBKTNV-3">
          <mxGeometry width="50" height="50" relative="1" as="geometry">
            <mxPoint x="290" y="110" as="sourcePoint" />
            <mxPoint x="340" y="60" as="targetPoint" />
          </mxGeometry>
        </mxCell>
        <mxCell id="YppJkVPkeZr5bcaH0tK0-9" value="" style="endArrow=none;html=1;rounded=0;" edge="1" parent="WIyWlLk6GJQsqaUBKTNV-1">
          <mxGeometry width="50" height="50" relative="1" as="geometry">
            <mxPoint x="80" y="160" as="sourcePoint" />
            <mxPoint x="360" y="160" as="targetPoint" />
          </mxGeometry>
        </mxCell>
        <mxCell id="YppJkVPkeZr5bcaH0tK0-10" value="" style="endArrow=classic;html=1;rounded=0;exitX=0.5;exitY=1;exitDx=0;exitDy=0;" edge="1" parent="WIyWlLk6GJQsqaUBKTNV-1" source="WIyWlLk6GJQsqaUBKTNV-3">
          <mxGeometry width="50" height="50" relative="1" as="geometry">
            <mxPoint x="290" y="360" as="sourcePoint" />
            <mxPoint x="220" y="160" as="targetPoint" />
          </mxGeometry>
        </mxCell>
        <mxCell id="YppJkVPkeZr5bcaH0tK0-12" value="" style="endArrow=classic;html=1;rounded=0;entryX=0.5;entryY=0;entryDx=0;entryDy=0;" edge="1" parent="WIyWlLk6GJQsqaUBKTNV-1" target="YppJkVPkeZr5bcaH0tK0-13">
          <mxGeometry width="50" height="50" relative="1" as="geometry">
            <mxPoint x="120" y="160" as="sourcePoint" />
            <mxPoint x="120" y="200" as="targetPoint" />
          </mxGeometry>
        </mxCell>
        <mxCell id="YppJkVPkeZr5bcaH0tK0-13" value="PO teilt Kaffee an alle Kaffeetrinker aus" style="rounded=1;whiteSpace=wrap;html=1;" vertex="1" parent="WIyWlLk6GJQsqaUBKTNV-1">
          <mxGeometry x="60" y="200" width="120" height="60" as="geometry" />
        </mxCell>
        <mxCell id="YppJkVPkeZr5bcaH0tK0-14" value="" style="endArrow=classic;html=1;rounded=0;" edge="1" parent="WIyWlLk6GJQsqaUBKTNV-1">
          <mxGeometry width="50" height="50" relative="1" as="geometry">
            <mxPoint x="320" y="160" as="sourcePoint" />
            <mxPoint x="320" y="200" as="targetPoint" />
          </mxGeometry>
        </mxCell>
        <mxCell id="YppJkVPkeZr5bcaH0tK0-15" value="PO teilt Tee an alle Teetrinker aus" style="rounded=1;whiteSpace=wrap;html=1;" vertex="1" parent="WIyWlLk6GJQsqaUBKTNV-1">
          <mxGeometry x="260" y="200" width="120" height="60" as="geometry" />
        </mxCell>
        <mxCell id="YppJkVPkeZr5bcaH0tK0-16" value="" style="endArrow=classic;html=1;rounded=0;exitX=0.5;exitY=1;exitDx=0;exitDy=0;" edge="1" parent="WIyWlLk6GJQsqaUBKTNV-1" source="YppJkVPkeZr5bcaH0tK0-13">
          <mxGeometry width="50" height="50" relative="1" as="geometry">
            <mxPoint x="290" y="360" as="sourcePoint" />
            <mxPoint x="120" y="300" as="targetPoint" />
          </mxGeometry>
        </mxCell>
        <mxCell id="YppJkVPkeZr5bcaH0tK0-17" value="" style="endArrow=none;html=1;rounded=0;" edge="1" parent="WIyWlLk6GJQsqaUBKTNV-1">
          <mxGeometry width="50" height="50" relative="1" as="geometry">
            <mxPoint x="80" y="300" as="sourcePoint" />
            <mxPoint x="360" y="300" as="targetPoint" />
            <Array as="points">
              <mxPoint x="220" y="300" />
            </Array>
          </mxGeometry>
        </mxCell>
        <mxCell id="YppJkVPkeZr5bcaH0tK0-18" value="" style="endArrow=classic;html=1;rounded=0;exitX=0.5;exitY=1;exitDx=0;exitDy=0;" edge="1" parent="WIyWlLk6GJQsqaUBKTNV-1">
          <mxGeometry width="50" height="50" relative="1" as="geometry">
            <mxPoint x="319.58000000000004" y="260" as="sourcePoint" />
            <mxPoint x="319.58000000000004" y="300" as="targetPoint" />
          </mxGeometry>
        </mxCell>
        <mxCell id="YppJkVPkeZr5bcaH0tK0-19" value="" style="endArrow=classic;html=1;rounded=0;" edge="1" parent="WIyWlLk6GJQsqaUBKTNV-1">
          <mxGeometry width="50" height="50" relative="1" as="geometry">
            <mxPoint x="220" y="300" as="sourcePoint" />
            <mxPoint x="220" y="360" as="targetPoint" />
          </mxGeometry>
        </mxCell>
        <mxCell id="YppJkVPkeZr5bcaH0tK0-20" value="PO stellt das Ziel des Sprints vor" style="rounded=1;whiteSpace=wrap;html=1;" vertex="1" parent="WIyWlLk6GJQsqaUBKTNV-1">
          <mxGeometry x="160" y="360" width="120" height="60" as="geometry" />
        </mxCell>
        <mxCell id="YppJkVPkeZr5bcaH0tK0-21" value="" style="endArrow=classic;html=1;rounded=0;exitX=0.5;exitY=1;exitDx=0;exitDy=0;" edge="1" parent="WIyWlLk6GJQsqaUBKTNV-1" source="YppJkVPkeZr5bcaH0tK0-20">
          <mxGeometry width="50" height="50" relative="1" as="geometry">
            <mxPoint x="290" y="440" as="sourcePoint" />
            <mxPoint x="220" y="460" as="targetPoint" />
          </mxGeometry>
        </mxCell>
        <mxCell id="YppJkVPkeZr5bcaH0tK0-22" value="PO gibt Überblick über Anforderungen des Sprints" style="rounded=1;whiteSpace=wrap;html=1;" vertex="1" parent="WIyWlLk6GJQsqaUBKTNV-1">
          <mxGeometry x="160" y="460" width="120" height="60" as="geometry" />
        </mxCell>
        <mxCell id="YppJkVPkeZr5bcaH0tK0-23" value="" style="endArrow=classic;html=1;rounded=0;exitX=0.5;exitY=1;exitDx=0;exitDy=0;" edge="1" parent="WIyWlLk6GJQsqaUBKTNV-1" source="YppJkVPkeZr5bcaH0tK0-22">
          <mxGeometry width="50" height="50" relative="1" as="geometry">
            <mxPoint x="290" y="440" as="sourcePoint" />
            <mxPoint x="220" y="560" as="targetPoint" />
          </mxGeometry>
        </mxCell>
        <mxCell id="YppJkVPkeZr5bcaH0tK0-24" value="Anforderung wir diskutiert" style="rounded=1;whiteSpace=wrap;html=1;" vertex="1" parent="WIyWlLk6GJQsqaUBKTNV-1">
          <mxGeometry x="160" y="560" width="120" height="60" as="geometry" />
        </mxCell>
        <mxCell id="YppJkVPkeZr5bcaH0tK0-34" style="edgeStyle=orthogonalEdgeStyle;rounded=0;orthogonalLoop=1;jettySize=auto;html=1;exitX=0.5;exitY=1;exitDx=0;exitDy=0;exitPerimeter=0;" edge="1" parent="WIyWlLk6GJQsqaUBKTNV-1" source="YppJkVPkeZr5bcaH0tK0-30">
          <mxGeometry relative="1" as="geometry">
            <mxPoint x="220" y="830" as="targetPoint" />
          </mxGeometry>
        </mxCell>
        <mxCell id="YppJkVPkeZr5bcaH0tK0-35" value="Nein" style="edgeLabel;html=1;align=center;verticalAlign=middle;resizable=0;points=[];" vertex="1" connectable="0" parent="YppJkVPkeZr5bcaH0tK0-34">
          <mxGeometry x="0.0611" relative="1" as="geometry">
            <mxPoint as="offset" />
          </mxGeometry>
        </mxCell>
        <mxCell id="YppJkVPkeZr5bcaH0tK0-30" value="Gibt es noch weitere Anforderungen?" style="strokeWidth=2;html=1;shape=mxgraph.flowchart.decision;whiteSpace=wrap;" vertex="1" parent="WIyWlLk6GJQsqaUBKTNV-1">
          <mxGeometry x="142.5" y="680" width="155" height="100" as="geometry" />
        </mxCell>
        <mxCell id="YppJkVPkeZr5bcaH0tK0-31" style="edgeStyle=orthogonalEdgeStyle;rounded=0;orthogonalLoop=1;jettySize=auto;html=1;exitX=0.5;exitY=1;exitDx=0;exitDy=0;entryX=0.5;entryY=0;entryDx=0;entryDy=0;entryPerimeter=0;" edge="1" parent="WIyWlLk6GJQsqaUBKTNV-1" source="YppJkVPkeZr5bcaH0tK0-24" target="YppJkVPkeZr5bcaH0tK0-30">
          <mxGeometry relative="1" as="geometry" />
        </mxCell>
        <mxCell id="YppJkVPkeZr5bcaH0tK0-32" value="" style="edgeStyle=none;orthogonalLoop=1;jettySize=auto;html=1;rounded=0;entryX=1;entryY=0.5;entryDx=0;entryDy=0;exitX=1;exitY=0.5;exitDx=0;exitDy=0;exitPerimeter=0;" edge="1" parent="WIyWlLk6GJQsqaUBKTNV-1" source="YppJkVPkeZr5bcaH0tK0-30" target="YppJkVPkeZr5bcaH0tK0-24">
          <mxGeometry width="100" relative="1" as="geometry">
            <mxPoint x="320" y="760" as="sourcePoint" />
            <mxPoint x="385" y="729.58" as="targetPoint" />
            <Array as="points">
              <mxPoint x="310" y="730" />
              <mxPoint x="310" y="590" />
            </Array>
          </mxGeometry>
        </mxCell>
        <mxCell id="YppJkVPkeZr5bcaH0tK0-33" value="Ja" style="edgeLabel;html=1;align=center;verticalAlign=middle;resizable=0;points=[];" vertex="1" connectable="0" parent="YppJkVPkeZr5bcaH0tK0-32">
          <mxGeometry x="-0.2666" y="2" relative="1" as="geometry">
            <mxPoint y="-16" as="offset" />
          </mxGeometry>
        </mxCell>
        <mxCell id="YppJkVPkeZr5bcaH0tK0-37" value="Schätzt Aufwand für Anforderung&amp;nbsp;" style="rounded=1;whiteSpace=wrap;html=1;" vertex="1" parent="WIyWlLk6GJQsqaUBKTNV-1">
          <mxGeometry x="160" y="830" width="120" height="60" as="geometry" />
        </mxCell>
        <mxCell id="YppJkVPkeZr5bcaH0tK0-41" style="edgeStyle=orthogonalEdgeStyle;rounded=0;orthogonalLoop=1;jettySize=auto;html=1;exitX=0;exitY=0.5;exitDx=0;exitDy=0;exitPerimeter=0;" edge="1" parent="WIyWlLk6GJQsqaUBKTNV-1" source="YppJkVPkeZr5bcaH0tK0-38">
          <mxGeometry relative="1" as="geometry">
            <mxPoint x="30" y="1005.166666666667" as="targetPoint" />
          </mxGeometry>
        </mxCell>
        <mxCell id="YppJkVPkeZr5bcaH0tK0-42" value="Ja" style="edgeLabel;html=1;align=center;verticalAlign=middle;resizable=0;points=[];" vertex="1" connectable="0" parent="YppJkVPkeZr5bcaH0tK0-41">
          <mxGeometry x="-0.0184" y="-1" relative="1" as="geometry">
            <mxPoint x="1" as="offset" />
          </mxGeometry>
        </mxCell>
        <mxCell id="YppJkVPkeZr5bcaH0tK0-45" style="edgeStyle=orthogonalEdgeStyle;rounded=0;orthogonalLoop=1;jettySize=auto;html=1;exitX=1;exitY=0.5;exitDx=0;exitDy=0;exitPerimeter=0;" edge="1" parent="WIyWlLk6GJQsqaUBKTNV-1" source="YppJkVPkeZr5bcaH0tK0-38">
          <mxGeometry relative="1" as="geometry">
            <mxPoint x="400" y="1005.166666666667" as="targetPoint" />
          </mxGeometry>
        </mxCell>
        <mxCell id="YppJkVPkeZr5bcaH0tK0-46" value="Nein" style="edgeLabel;html=1;align=center;verticalAlign=middle;resizable=0;points=[];" vertex="1" connectable="0" parent="YppJkVPkeZr5bcaH0tK0-45">
          <mxGeometry x="-0.2852" relative="1" as="geometry">
            <mxPoint as="offset" />
          </mxGeometry>
        </mxCell>
        <mxCell id="YppJkVPkeZr5bcaH0tK0-38" value="Kommt die Anforderung in das Selektierte Product Backlog&amp;nbsp;" style="strokeWidth=2;html=1;shape=mxgraph.flowchart.decision;whiteSpace=wrap;" vertex="1" parent="WIyWlLk6GJQsqaUBKTNV-1">
          <mxGeometry x="120" y="940" width="200" height="130" as="geometry" />
        </mxCell>
        <mxCell id="YppJkVPkeZr5bcaH0tK0-39" style="edgeStyle=orthogonalEdgeStyle;rounded=0;orthogonalLoop=1;jettySize=auto;html=1;exitX=0.5;exitY=1;exitDx=0;exitDy=0;entryX=0.5;entryY=0;entryDx=0;entryDy=0;entryPerimeter=0;" edge="1" parent="WIyWlLk6GJQsqaUBKTNV-1" source="YppJkVPkeZr5bcaH0tK0-37" target="YppJkVPkeZr5bcaH0tK0-38">
          <mxGeometry relative="1" as="geometry" />
        </mxCell>
        <mxCell id="YppJkVPkeZr5bcaH0tK0-54" style="edgeStyle=orthogonalEdgeStyle;rounded=0;orthogonalLoop=1;jettySize=auto;html=1;exitX=0.5;exitY=1;exitDx=0;exitDy=0;" edge="1" parent="WIyWlLk6GJQsqaUBKTNV-1" source="YppJkVPkeZr5bcaH0tK0-43" target="YppJkVPkeZr5bcaH0tK0-55">
          <mxGeometry relative="1" as="geometry">
            <mxPoint x="120" y="1160" as="targetPoint" />
          </mxGeometry>
        </mxCell>
        <mxCell id="YppJkVPkeZr5bcaH0tK0-43" value="Wird zum&amp;nbsp;Selektierte Product Backlog hinzugefügt" style="rounded=1;whiteSpace=wrap;html=1;" vertex="1" parent="WIyWlLk6GJQsqaUBKTNV-1">
          <mxGeometry x="-90" y="975" width="120" height="60" as="geometry" />
        </mxCell>
        <mxCell id="YppJkVPkeZr5bcaH0tK0-47" value="Wird mit der neuen Abschätzung ins Product Backlog gelegt" style="rounded=1;whiteSpace=wrap;html=1;" vertex="1" parent="WIyWlLk6GJQsqaUBKTNV-1">
          <mxGeometry x="400" y="975" width="120" height="60" as="geometry" />
        </mxCell>
        <mxCell id="YppJkVPkeZr5bcaH0tK0-50" style="edgeStyle=orthogonalEdgeStyle;rounded=0;orthogonalLoop=1;jettySize=auto;html=1;exitX=1;exitY=0.5;exitDx=0;exitDy=0;exitPerimeter=0;" edge="1" parent="WIyWlLk6GJQsqaUBKTNV-1" source="YppJkVPkeZr5bcaH0tK0-48" target="YppJkVPkeZr5bcaH0tK0-60">
          <mxGeometry relative="1" as="geometry">
            <mxPoint x="700" y="420.8333333333333" as="targetPoint" />
          </mxGeometry>
        </mxCell>
        <mxCell id="YppJkVPkeZr5bcaH0tK0-51" value="Ja" style="edgeLabel;html=1;align=center;verticalAlign=middle;resizable=0;points=[];" vertex="1" connectable="0" parent="YppJkVPkeZr5bcaH0tK0-50">
          <mxGeometry x="-0.077" y="-3" relative="1" as="geometry">
            <mxPoint as="offset" />
          </mxGeometry>
        </mxCell>
        <mxCell id="YppJkVPkeZr5bcaH0tK0-52" style="edgeStyle=orthogonalEdgeStyle;rounded=0;orthogonalLoop=1;jettySize=auto;html=1;exitX=0.5;exitY=1;exitDx=0;exitDy=0;exitPerimeter=0;entryX=0.5;entryY=0;entryDx=0;entryDy=0;" edge="1" parent="WIyWlLk6GJQsqaUBKTNV-1" source="YppJkVPkeZr5bcaH0tK0-48" target="YppJkVPkeZr5bcaH0tK0-55">
          <mxGeometry relative="1" as="geometry">
            <mxPoint x="659.666666666667" y="1120" as="targetPoint" />
          </mxGeometry>
        </mxCell>
        <mxCell id="YppJkVPkeZr5bcaH0tK0-53" value="Nein" style="edgeLabel;html=1;align=center;verticalAlign=middle;resizable=0;points=[];" vertex="1" connectable="0" parent="YppJkVPkeZr5bcaH0tK0-52">
          <mxGeometry x="-0.0033" y="-1" relative="1" as="geometry">
            <mxPoint y="1" as="offset" />
          </mxGeometry>
        </mxCell>
        <mxCell id="YppJkVPkeZr5bcaH0tK0-48" value="Muss das Sprintziel angepasst wer den?" style="strokeWidth=2;html=1;shape=mxgraph.flowchart.decision;whiteSpace=wrap;" vertex="1" parent="WIyWlLk6GJQsqaUBKTNV-1">
          <mxGeometry x="590" y="942.5" width="140" height="125" as="geometry" />
        </mxCell>
        <mxCell id="YppJkVPkeZr5bcaH0tK0-49" style="edgeStyle=orthogonalEdgeStyle;rounded=0;orthogonalLoop=1;jettySize=auto;html=1;exitX=1;exitY=0.5;exitDx=0;exitDy=0;entryX=0;entryY=0.5;entryDx=0;entryDy=0;entryPerimeter=0;" edge="1" parent="WIyWlLk6GJQsqaUBKTNV-1" source="YppJkVPkeZr5bcaH0tK0-47" target="YppJkVPkeZr5bcaH0tK0-48">
          <mxGeometry relative="1" as="geometry" />
        </mxCell>
        <mxCell id="YppJkVPkeZr5bcaH0tK0-58" style="edgeStyle=orthogonalEdgeStyle;rounded=0;orthogonalLoop=1;jettySize=auto;html=1;exitX=0;exitY=0.5;exitDx=0;exitDy=0;entryX=0;entryY=0.5;entryDx=0;entryDy=0;" edge="1" parent="WIyWlLk6GJQsqaUBKTNV-1" source="YppJkVPkeZr5bcaH0tK0-55" target="YppJkVPkeZr5bcaH0tK0-37">
          <mxGeometry relative="1" as="geometry">
            <Array as="points">
              <mxPoint x="-190" y="1209" />
              <mxPoint x="-190" y="860" />
            </Array>
          </mxGeometry>
        </mxCell>
        <mxCell id="YppJkVPkeZr5bcaH0tK0-59" value="Ja" style="edgeLabel;html=1;align=center;verticalAlign=middle;resizable=0;points=[];" vertex="1" connectable="0" parent="YppJkVPkeZr5bcaH0tK0-58">
          <mxGeometry x="-0.652" y="-3" relative="1" as="geometry">
            <mxPoint as="offset" />
          </mxGeometry>
        </mxCell>
        <mxCell id="YppJkVPkeZr5bcaH0tK0-64" style="edgeStyle=orthogonalEdgeStyle;rounded=0;orthogonalLoop=1;jettySize=auto;html=1;exitX=0.5;exitY=1;exitDx=0;exitDy=0;" edge="1" parent="WIyWlLk6GJQsqaUBKTNV-1" source="YppJkVPkeZr5bcaH0tK0-55">
          <mxGeometry relative="1" as="geometry">
            <mxPoint x="217.16666666666697" y="1360" as="targetPoint" />
          </mxGeometry>
        </mxCell>
        <mxCell id="YppJkVPkeZr5bcaH0tK0-65" value="Nein" style="edgeLabel;html=1;align=center;verticalAlign=middle;resizable=0;points=[];" vertex="1" connectable="0" parent="YppJkVPkeZr5bcaH0tK0-64">
          <mxGeometry x="-0.1694" relative="1" as="geometry">
            <mxPoint as="offset" />
          </mxGeometry>
        </mxCell>
        <mxCell id="YppJkVPkeZr5bcaH0tK0-55" value="Gibt es noch weitere Anforderungen" style="rhombus;whiteSpace=wrap;html=1;" vertex="1" parent="WIyWlLk6GJQsqaUBKTNV-1">
          <mxGeometry x="142.5" y="1169" width="150" height="80" as="geometry" />
        </mxCell>
        <mxCell id="YppJkVPkeZr5bcaH0tK0-62" style="edgeStyle=orthogonalEdgeStyle;rounded=0;orthogonalLoop=1;jettySize=auto;html=1;exitX=0.5;exitY=0;exitDx=0;exitDy=0;entryX=1;entryY=0.5;entryDx=0;entryDy=0;" edge="1" parent="WIyWlLk6GJQsqaUBKTNV-1" source="YppJkVPkeZr5bcaH0tK0-60" target="WIyWlLk6GJQsqaUBKTNV-3">
          <mxGeometry relative="1" as="geometry" />
        </mxCell>
        <mxCell id="YppJkVPkeZr5bcaH0tK0-63" value="Es muss Zeit in die neue Planung investiert werden" style="edgeLabel;html=1;align=center;verticalAlign=middle;resizable=0;points=[];" vertex="1" connectable="0" parent="YppJkVPkeZr5bcaH0tK0-62">
          <mxGeometry x="-0.521" y="3" relative="1" as="geometry">
            <mxPoint as="offset" />
          </mxGeometry>
        </mxCell>
        <mxCell id="YppJkVPkeZr5bcaH0tK0-60" value="Sprint Ziel muss Angepasst werden" style="rounded=1;whiteSpace=wrap;html=1;" vertex="1" parent="WIyWlLk6GJQsqaUBKTNV-1">
          <mxGeometry x="690" y="360.0033333333335" width="120" height="60" as="geometry" />
        </mxCell>
        <mxCell id="YppJkVPkeZr5bcaH0tK0-67" style="edgeStyle=orthogonalEdgeStyle;rounded=0;orthogonalLoop=1;jettySize=auto;html=1;exitX=0.5;exitY=1;exitDx=0;exitDy=0;" edge="1" parent="WIyWlLk6GJQsqaUBKTNV-1" source="YppJkVPkeZr5bcaH0tK0-66">
          <mxGeometry relative="1" as="geometry">
            <mxPoint x="217.16666666666697" y="1470" as="targetPoint" />
          </mxGeometry>
        </mxCell>
        <mxCell id="YppJkVPkeZr5bcaH0tK0-66" value="Velocity des Sprints wird bestimmt" style="rounded=1;whiteSpace=wrap;html=1;" vertex="1" parent="WIyWlLk6GJQsqaUBKTNV-1">
          <mxGeometry x="157.5" y="1360" width="120" height="60" as="geometry" />
        </mxCell>
        <mxCell id="YppJkVPkeZr5bcaH0tK0-69" style="edgeStyle=orthogonalEdgeStyle;rounded=0;orthogonalLoop=1;jettySize=auto;html=1;exitX=0.5;exitY=1;exitDx=0;exitDy=0;" edge="1" parent="WIyWlLk6GJQsqaUBKTNV-1" source="YppJkVPkeZr5bcaH0tK0-68">
          <mxGeometry relative="1" as="geometry">
            <mxPoint x="217.16666666666697" y="1580" as="targetPoint" />
          </mxGeometry>
        </mxCell>
        <mxCell id="YppJkVPkeZr5bcaH0tK0-68" value="Forecast, Prognose wird abgegeben" style="rounded=1;whiteSpace=wrap;html=1;" vertex="1" parent="WIyWlLk6GJQsqaUBKTNV-1">
          <mxGeometry x="157.5" y="1470" width="120" height="60" as="geometry" />
        </mxCell>
        <mxCell id="YppJkVPkeZr5bcaH0tK0-70" value="Ergebnisse des Meetings werden in Confluence dokumentiert" style="rounded=1;whiteSpace=wrap;html=1;" vertex="1" parent="WIyWlLk6GJQsqaUBKTNV-1">
          <mxGeometry x="160" y="1580" width="120" height="60" as="geometry" />
        </mxCell>
        <mxCell id="YppJkVPkeZr5bcaH0tK0-71" value="" style="strokeWidth=2;html=1;shape=mxgraph.flowchart.terminator;whiteSpace=wrap;" vertex="1" parent="WIyWlLk6GJQsqaUBKTNV-1">
          <mxGeometry x="170" y="1724" width="100" height="60" as="geometry" />
        </mxCell>
        <mxCell id="YppJkVPkeZr5bcaH0tK0-72" style="edgeStyle=orthogonalEdgeStyle;rounded=0;orthogonalLoop=1;jettySize=auto;html=1;exitX=0.5;exitY=1;exitDx=0;exitDy=0;entryX=0.5;entryY=0;entryDx=0;entryDy=0;entryPerimeter=0;" edge="1" parent="WIyWlLk6GJQsqaUBKTNV-1" source="YppJkVPkeZr5bcaH0tK0-70" target="YppJkVPkeZr5bcaH0tK0-71">
          <mxGeometry relative="1" as="geometry" />
        </mxCell>
      </root>
    </mxGraphModel>
  </diagram>
</mxfile>
